<svg width="245" height="251" viewBox="0 0 245 251" fill="none" xmlns="http://www.w3.org/2000/svg">
<path d="M142.952 83.1489L179.139 119.336C179.908 120.105 180.517 121.017 180.934 122.022C181.35 123.026 181.564 124.103 181.564 125.19C181.564 126.277 181.35 127.353 180.934 128.358C180.517 129.362 179.908 130.275 179.139 131.043L142.952 167.23L131.244 155.523L161.568 125.168L131.247 94.8565L142.952 83.1489Z" fill="white"/>
<path d="M98.0493 167.211L61.8623 131.024C61.0935 130.255 60.4837 129.343 60.0676 128.338C59.6516 127.334 59.4374 126.257 59.4374 125.17C59.4374 124.083 59.6516 123.007 60.0676 122.002C60.4837 120.998 61.0935 120.085 61.8623 119.316L98.0493 83.1294L109.757 94.837L79.4331 125.191L109.757 155.515L98.0493 167.211Z" fill="white"/>
<path d="M198.855 250.013C186.587 250.013 172.162 244.45 155.648 229.244L112.129 185.46L123.837 173.753L167.11 217.302C194.929 242.91 211.128 232.475 220.87 222.376C225.77 217.295 238.788 203.802 204.153 169.159C200.369 165.375 197.311 162.317 194.882 159.801L194.839 159.843L190.26 155.264L190.497 155.028C185.246 148.878 186.398 147.412 190.26 143.545C194.416 139.389 198.065 140.622 201.828 143.691L201.97 143.55L206.114 147.693L206.549 148.128L215.863 157.442C246.475 188.055 252.171 213.762 232.788 233.851C224.463 242.494 213.117 250.013 198.855 250.013Z" fill="#DB1D1D"/>
<path d="M195.65 109.09C194.618 109.035 193.607 108.771 192.68 108.314C191.752 107.856 190.927 107.215 190.255 106.429C186.388 102.562 185.236 101.089 190.492 94.9466L190.255 94.71L194.834 90.1311L194.877 90.1737C197.306 87.6572 200.364 84.599 204.148 80.8147C238.784 46.1793 225.766 32.686 220.865 27.5986C211.123 17.4993 194.924 7.06185 166.859 32.9083L123.837 76.2192L112.129 64.5116L155.395 20.9643C191.346 -12.148 217.301 0.0610206 232.779 16.1039C252.161 36.1936 246.466 61.9005 215.853 92.5128L206.539 101.827L206.118 102.248L201.96 106.406L201.819 106.264C200.146 107.883 197.969 108.88 195.65 109.09Z" fill="#DB1D1D"/>
<path d="M46.3941 249.915C33.7594 249.915 21.8791 244.655 11.6947 234.099C-8.21048 213.468 -2.40867 182.484 26.8318 153.241L39.1306 140.931L39.4025 140.659L42.0942 137.967L42.2054 138.079C45.396 135.496 49.5114 133.667 53.8066 137.963C57.6239 141.78 58.9507 143.107 53.5534 149.429L53.7898 149.665L50.8264 152.629L50.7317 152.534C47.8439 155.609 43.8538 159.602 38.5156 164.94C30.0909 173.364 4.1167 202.42 23.5843 222.598C43.2365 242.966 65.1829 230.831 80.1355 217.061C89.7593 207.425 92.1836 205.285 94.3998 203.324C96.15 201.772 97.7606 200.341 103.307 194.793L115.014 206.5C109.019 212.496 107.273 214.038 105.381 215.724C103.276 217.591 100.98 219.634 91.5969 229.017C76.5143 242.928 60.954 249.915 46.3941 249.915Z" fill="#DB1D1D"/>
<path d="M48.407 114.6C46.1018 114.43 43.9222 113.484 42.2244 111.916L42.1132 112.027L39.3294 109.243L39.1476 109.061L26.8485 96.762C-2.39433 67.5192 -8.19613 36.5355 11.7114 15.9042C33.6318 -6.81791 63.4211 -5.00146 91.3939 20.7575C101.02 30.3743 103.319 32.4178 105.424 34.2839C107.316 35.9608 109.062 37.5029 115.057 43.5081L103.35 55.2156C97.801 49.667 96.1927 48.2361 94.4425 46.6845C92.2287 44.7214 89.8046 42.5809 79.9348 32.7111C65.2282 19.1776 43.2747 7.04192 23.6296 27.4107C4.16436 47.5879 30.1385 76.644 38.5632 85.0687C43.9014 90.4069 47.8915 94.3969 50.7793 97.474L50.874 97.3793L53.8397 100.345L53.6033 100.582C58.9982 106.901 57.6689 108.228 53.8516 112.043C53.1662 112.818 52.3297 113.444 51.3934 113.884C50.4572 114.324 49.4408 114.567 48.407 114.6Z" fill="#DB1D1D"/>
</svg>
